<?xml version="1.0" encoding="UTF-8" standalone="no"?>
<!-- Created with Inkscape (http://www.inkscape.org/) -->

<svg
   width="262"
   height="149"
   viewBox="0 0 69.320838 39.422917"
   version="1.1"
   id="svg11612"
   inkscape:version="1.2-beta (1b65182c, 2022-04-05)"
   sodipodi:docname="bridge.svg"
   xmlns:inkscape="http://www.inkscape.org/namespaces/inkscape"
   xmlns:sodipodi="http://sodipodi.sourceforge.net/DTD/sodipodi-0.dtd"
   xmlns="http://www.w3.org/2000/svg"
   xmlns:svg="http://www.w3.org/2000/svg">
  <sodipodi:namedview
     id="namedview11614"
     pagecolor="#ffffff"
     bordercolor="#000000"
     borderopacity="0.25"
     inkscape:showpageshadow="2"
     inkscape:pageopacity="0.0"
     inkscape:pagecheckerboard="true"
     inkscape:deskcolor="#d1d1d1"
     inkscape:document-units="px"
     showgrid="false"
     inkscape:zoom="2.8284271"
     inkscape:cx="123.56691"
     inkscape:cy="146.01755"
     inkscape:window-width="1350"
     inkscape:window-height="1230"
     inkscape:window-x="1016"
     inkscape:window-y="115"
     inkscape:window-maximized="0"
     inkscape:current-layer="layer1"
     inkscape:pageshadow="2" />
  <defs
     id="defs11609">
    <clipPath
       clipPathUnits="userSpaceOnUse"
       id="clipPath15365">
      <path
         d="M -463.3818,233.9146 H 36.618204 v -500 H -463.3818 Z"
         id="path15367"
         style="stroke-width:0.999998" />
    </clipPath>
    <clipPath
       clipPathUnits="userSpaceOnUse"
       id="clipPath15365-6">
      <path
         d="M -463.3818,233.9146 H 36.618204 v -500 H -463.3818 Z"
         id="path15367-0"
         style="stroke-width:0.999998" />
    </clipPath>
    <clipPath
       clipPathUnits="userSpaceOnUse"
       id="clipPath1825">
      <path
         d="m -379.5811,126.7026 h 500 v -500 h -500 z"
         id="path1827"
         style="stroke-width:0.999998" />
    </clipPath>
    <clipPath
       clipPathUnits="userSpaceOnUse"
       id="clipPath1809">
      <path
         d="m -166.2095,165.062 h 500 v -500 h -500 z"
         id="path1811"
         style="stroke-width:0.999998" />
    </clipPath>
    <clipPath
       clipPathUnits="userSpaceOnUse"
       id="clipPath1801">
      <path
         d="m -124.0186,213.0645 h 500 v -500 h -500 z"
         id="path1803"
         style="stroke-width:0.999998" />
    </clipPath>
    <clipPath
       clipPathUnits="userSpaceOnUse"
       id="clipPath1833">
      <path
         d="m -280.6855,238.8438 h 500 v -500 h -500 z"
         id="path1835"
         style="stroke-width:0.999998" />
    </clipPath>
    <clipPath
       clipPathUnits="userSpaceOnUse"
       id="clipPath1817">
      <path
         d="m -313.6992,265.5449 h 500 v -500 h -500 z"
         id="path1819"
         style="stroke-width:0.999998" />
    </clipPath>
  </defs>
  <g
     inkscape:label="Layer 1"
     inkscape:groupmode="layer"
     id="layer1">
    <g
       id="g1222"
       transform="matrix(0.35296638,0,0,-0.35294518,47.831183,31.831067)"
       clip-path="url(#clipPath1817)"
       style="fill:#000000">
      <path
         d="M 0,0 H -0.065 C -3,0 -5.399,-2.385 -5.437,-5.312 c -5.967,3.342 -12.436,5.783 -19.087,7.2 H 0 Z m -73.986,0 v 1.888 h 23.128 C -57.061,0.479 -63.044,-2 -68.542,-5.647 v 0.269 c 0,2.957 -2.42,5.378 -5.378,5.378 z m -42.152,6.729 c 6.19,3.145 12.166,7.237 17.188,12.234 v -3.726 h -1.232 c -0.643,0 -1.165,-0.522 -1.165,-1.166 0,-0.642 0.522,-1.165 1.165,-1.165 h 1.232 V 6.729 Z m 17.188,13.955 c -5.699,-5.916 -12.78,-10.586 -20.005,-13.955 h -7.715 c 10.388,4.524 20.539,11.241 27.72,20.03 z m 24.964,-5.447 v 19.181 h 1.231 c 0.644,0 1.166,0.521 1.166,1.165 0,0.644 -0.522,1.165 -1.166,1.165 h -1.231 v 4.936 H 0 v -4.936 h -1.23 c -0.645,0 -1.166,-0.521 -1.166,-1.165 0,-0.644 0.521,-1.165 1.166,-1.165 H 0 V 15.237 h -1.23 c -0.645,0 -1.166,-0.522 -1.166,-1.166 0,-0.642 0.521,-1.165 1.166,-1.165 H 0 V 6.729 h -73.986 v 6.177 h 1.231 c 0.644,0 1.166,0.523 1.166,1.165 0,0.644 -0.522,1.166 -1.166,1.166 z m 0,31.018 H 0 V 43.969 H -73.986 Z M 44.324,6.729 c -6.959,3.245 -13.775,7.705 -19.36,13.315 v 5.967 C 32.103,17.592 41.951,11.122 52.039,6.729 Z m -19.36,6.177 h 1.232 c 0.643,0 1.165,0.523 1.165,1.165 0,0.644 -0.522,1.166 -1.165,1.166 H 24.964 V 18.33 C 29.851,13.619 35.58,9.739 41.507,6.729 H 24.964 Z M 60.883,1.888 V 6.729 H 55.535 C 44.141,11.211 32.702,18.403 24.964,28.117 v 6.301 h 1.232 c 0.643,0 1.165,0.521 1.165,1.165 0,0.644 -0.522,1.165 -1.165,1.165 h -1.232 v 19.181 h 1.232 c 0.643,0 1.165,0.522 1.165,1.165 0,0.644 -0.522,1.165 -1.165,1.165 H 24.964 V 74.213 L 22.284,85.347 19.605,74.213 H 16.327 L 12.482,90.187 8.639,74.213 H 5.359 L 2.68,85.347 0,74.213 V 58.259 h -1.23 c -0.645,0 -1.166,-0.521 -1.166,-1.165 0,-0.643 0.521,-1.165 1.166,-1.165 H 0 V 52.17 h -73.986 v 3.759 h 1.231 c 0.644,0 1.166,0.522 1.166,1.165 0,0.644 -0.522,1.165 -1.166,1.165 h -1.231 v 15.954 l -2.68,11.134 -2.679,-11.134 h -3.28 l -3.844,15.974 -3.844,-15.974 h -3.278 l -2.68,11.134 -2.679,-11.134 V 58.259 h -1.232 c -0.643,0 -1.165,-0.521 -1.165,-1.165 0,-0.643 0.522,-1.165 1.165,-1.165 h 1.232 V 36.748 h -1.232 c -0.643,0 -1.165,-0.521 -1.165,-1.165 0,-0.644 0.522,-1.165 1.165,-1.165 h 1.232 V 28.967 C -106.688,18.826 -118.444,11.34 -130.167,6.729 h -4.702 V 5.018 c -0.059,-0.02 -0.119,-0.041 -0.178,-0.062 -0.757,-0.247 -0.512,-1.354 0.178,-1.317 V 1.888 H -98.95 V 0 h -0.067 c -2.958,0 -5.378,-2.421 -5.378,-5.378 V -21.51 h 35.853 v 12.64 c 18.414,13.312 43.824,11.763 63.099,0.451 V -21.51 H 30.408 V -5.378 C 30.408,-2.421 27.988,0 25.03,0 h -0.066 v 1.888 z"
         style="fill:#000000;fill-opacity:1;fill-rule:nonzero;stroke:none"
         id="path1224"
         sodipodi:nodetypes="csccccccccscccccsssccccccccccsssccccsssccsssccccsscccccccccccccsssccccccccccsssccssscccccccccccsssccccssscccccccccccsssccsssccccccccccssccccccssccc" />
    </g>
  </g>
</svg>
