<?xml version="1.0" encoding="UTF-8" standalone="no"?>
<!-- Created with Inkscape (http://www.inkscape.org/) -->

<svg
   width="130"
   height="130"
   viewBox="0 0 34.395833 34.395833"
   version="1.1"
   id="svg11612"
   inkscape:version="1.2 (dc2aedaf03, 2022-05-15)"
   sodipodi:docname="wheel_circle.svg"
   xmlns:inkscape="http://www.inkscape.org/namespaces/inkscape"
   xmlns:sodipodi="http://sodipodi.sourceforge.net/DTD/sodipodi-0.dtd"
   xmlns="http://www.w3.org/2000/svg"
   xmlns:svg="http://www.w3.org/2000/svg">
  <sodipodi:namedview
     id="namedview11614"
     pagecolor="#ffffff"
     bordercolor="#000000"
     borderopacity="0.25"
     inkscape:showpageshadow="2"
     inkscape:pageopacity="0.0"
     inkscape:pagecheckerboard="true"
     inkscape:deskcolor="#d1d1d1"
     inkscape:document-units="px"
     showgrid="false"
     inkscape:zoom="16"
     inkscape:cx="78.34375"
     inkscape:cy="118.78125"
     inkscape:window-width="1350"
     inkscape:window-height="1230"
     inkscape:window-x="1016"
     inkscape:window-y="143"
     inkscape:window-maximized="0"
     inkscape:current-layer="layer1" />
  <defs
     id="defs11609">
    <clipPath
       clipPathUnits="userSpaceOnUse"
       id="clipPath15365">
      <path
         d="M -463.3818,233.9146 H 36.618204 v -500 H -463.3818 Z"
         id="path15367"
         style="stroke-width:0.999998" />
    </clipPath>
  </defs>
  <g
     inkscape:label="Layer 1"
     inkscape:groupmode="layer"
     id="layer1">
    <path
       d="m -5.302,2.276 c 0.013,0.167 0.028,0.334 0.037,0.501 1.1878217,0.3816425 2.3669651,0.6427244 3.499,0.92 C -1.433,2.398 -0.752,1.387 0.088,0.966 0.059,0.644 0.038,0.32 0,0 Z m -0.491,-3.927 c 0.174,0.987 0.32,1.984 0.419,2.994 l 5.158,-2.225 z m -0.269,-1.407 c 0.036,0.166 0.073,0.329 0.107,0.494 l 5.718,0.774 c -0.226,-1.439 -0.519,-2.858 -0.878,-4.249 z m -1.803,-12.053 c -0.601,0.595 -1.409,1.399 -1.867,1.965 0.075,0.143 0.147,0.287 0.22,0.43 0.693,-0.039 1.691,-0.211 2.677,-0.388 0.251,-0.044 0.496,-0.087 0.736,-0.128 -0.287,-1.459 -0.054,-2.778 0.636,-3.526 -0.109,-0.196 -0.211,-0.396 -0.324,-0.589 -0.403,0.558 -1.108,1.271 -2.078,2.236 z m -3.891,-1.444 c 0.56,0.842 1.084,1.706 1.579,2.59 0.413,-0.476 0.983,-1.049 1.7,-1.763 0.757,-0.75 1.851,-1.836 2.143,-2.349 -0.619,0.026 -1.926,0.449 -3.083,0.823 -0.847,0.273 -1.664,0.537 -2.339,0.699 z m 0.774,-3.369 c -0.515,0.673 -1.208,1.581 -1.584,2.204 0.094,0.131 0.189,0.262 0.281,0.394 0.687,-0.136 1.689,-0.46 2.6,-0.754 1.125,-0.363 2.194,-0.707 2.948,-0.822 -0.775,-1.213 -1.606,-2.388 -2.492,-3.518 -0.323,0.608 -0.922,1.409 -1.753,2.496 z m -8.968,-5.606 c 0.128,0.103 0.261,0.201 0.387,0.305 l 3.402,-2.145 c -0.227,-0.791 -0.225,-1.534 0.043,-2.119 -0.614,-0.506 -1.236,-0.999 -1.876,-1.469 z m -3.224,-2.335 c 0.854,0.556 1.685,1.141 2.49,1.759 l 1.898,-5.311 z m -1.192,-0.755 c 0.141,0.085 0.281,0.173 0.423,0.26 l 4.489,-3.639 c -1.199,-0.813 -2.438,-1.57 -3.712,-2.266 z m -9.876,-4.223 c 0.16,0.044 0.32,0.091 0.479,0.136 0.46,-0.566 1.082,-1.521 1.543,-2.23 0.207,-0.319 0.396,-0.606 0.571,-0.869 -0.689,-0.73 -1.08,-1.545 -1.032,-2.3 -0.641,-0.177 -1.286,-0.344 -1.938,-0.493 z m -1.285,-5.852 -2.576,5.001 c 0.999,0.167 1.986,0.371 2.959,0.612 z m -4.897,0.112 0.904,4.681 c 0.166,0.022 0.333,0.04 0.499,0.064 l 2.631,-5.128 c -1.155,-0.217 -2.328,-0.376 -3.51,-0.501 -0.099,0.315 -0.278,0.613 -0.524,0.884 z m -9.86,4.745 c 0.166,-0.024 0.332,-0.041 0.498,-0.064 0.384973,-1.623683 0.613726,-3.255869 0.938,-4.824 -0.186,-0.238 -0.327,-0.491 -0.407,-0.758 -1.235,0.126 -2.458,0.293 -3.662,0.518 z m -8.199,-3.14 2.938,4.271 c 0.16,-0.045 0.318,-0.092 0.48,-0.135 l 0.378,-5.756 c -1.284,0.293 -2.545,0.65 -3.786,1.053 0.023,0.183 0.017,0.374 -0.01,0.567 z m -14.59,7.391 c 0.322,0.619 0.318,1.436 0.054,2.299 l 3.276,2.064 c 0.128,-0.105 0.259,-0.202 0.388,-0.305 l -1.958,-5.429 c -0.598,0.442 -1.184,0.901 -1.76,1.371 z m -3.949,12.263 c 0.092,-0.133 0.187,-0.264 0.282,-0.395 -0.376,-0.623 -1.07,-1.531 -1.584,-2.203 -0.831,-1.086 -1.431,-1.888 -1.755,-2.496 -0.884,1.13 -1.716,2.305 -2.491,3.518 z m -2.107,3.361 c 0.493,-0.885 1.019,-1.748 1.577,-2.59 l -5.422,-1.522 c 1.168595,1.513215 2.600732,2.74815 3.845,4.112 z m -4.752,0.622 4.087,0.625 c 0.073,-0.143 0.145,-0.286 0.22,-0.428 l -3.946,-4.201 c -0.44,0.755 -0.85,1.526 -1.246,2.307 0.445,0.385 0.747,0.977 0.885,1.697 z m -3.514,17.003 c 0.246,-0.06 0.498,-0.122 0.775,-0.189 0.807,-0.193 1.895,-0.453 2.578,-0.694 0.011,-0.168 0.026,-0.334 0.038,-0.502 -1.72099,-0.9045029 -3.647233,-1.31000398 -5.302,-2.277 -0.035,0.3 -0.053,0.604 -0.083,0.904 0.902,0.37 1.639,1.401 1.994,2.758 z m 0.166,0.852 c 0.07573,0.514893 0.06191,0.9624084 0.053,1.437 l 3.089,0.793 c -0.0564,-1.0429665 -0.03264,-2.0661181 0,-3.036 -1.170258,0.3432695 -2.07807,0.5455361 -3.142,0.806 z m 3.986,8.995 c -0.035,-0.164 -0.072,-0.329 -0.107,-0.494 l -5.719,-0.774 c 0.226,1.44 0.519,2.858 0.88,4.25 z m -0.882,8.14 c 0.284086,0.411608 0.458879,0.810817 0.64,1.202 l 3.261,-0.524 c -0.439,-0.905 -0.832,-1.835 -1.199,-2.779 z m -1.391,-29.464 c 0.297,0.009 0.599,0.02 0.904,0.032 0.647,0.025 1.293,0.05 1.859,0.05 0.361,0 0.624,-0.013 0.834,-0.029 0.055,-0.155 0.103,-0.314 0.158,-0.47 -0.532,-0.497 -1.439,-1.18 -2.111,-1.685 -0.116,-0.087 -0.213,-0.161 -0.322,-0.243 -0.033,0.096 -0.052,0.191 -0.09,0.287 -0.314,0.806 -0.746,1.497 -1.232,2.058 z m 2.763,0.949 c -0.576,0 -1.233,-0.026 -1.893,-0.051 -0.621,-0.023 -1.239,-0.046 -1.792,-0.048 -0.304,0.212 -0.615,0.366 -0.928,0.463 0.599,0.407 1.523,0.92 2.217,1.305 0.883,0.491 1.587,0.888 2.115,1.235 0.237,-0.986 0.506,-1.958 0.814,-2.913 -0.168,0.006 -0.342,0.009 -0.533,0.009 z m 0.533,24.194 c -0.308,-0.955 -0.577,-1.928 -0.814,-2.913 l -4.811,2.911 z m 0.461,1.357 c -0.057,-0.156 -0.105,-0.314 -0.16,-0.472 l -5.777,0.016 c 0.121,0.398 0.259,0.788 0.391,1.181 0.888,0.03 1.853,0.594 2.663,1.542 z m -2.186,-29.744 c 0.207,0.157 0.41,0.309 0.593,0.448 0.809,0.609 1.452,1.099 1.928,1.514 0.368,-0.942 0.761,-1.872 1.199,-2.778 l -3.572,-0.574 c 0.004,0.441 -0.049,0.91 -0.148,1.39 z m 6.394,38.064 c -0.558,-0.84 -1.084,-1.705 -1.578,-2.588 l -3.845,4.111 z m 0.811,1.167 c -0.094,-0.131 -0.188,-0.262 -0.281,-0.396 l -5.549,1.578 c 0.776,1.213 1.607,2.386 2.493,3.518 z m 6.453,10.351 c 0.313,-0.784 0.736,-1.842 0.933,-2.542 -0.128,-0.103 -0.261,-0.2 -0.388,-0.304 -0.638,0.326 -1.56,0.938 -2.297,1.425 -0.422,0.278 -0.792,0.519 -1.138,0.739 0.349,0.84 0.438,1.653 0.262,2.325 0.526,0.425 1.059,0.842 1.604,1.245 0.15,-0.675 0.512,-1.611 1.024,-2.888 z m 4.154,-0.208 c -0.853,-0.554 -1.684,-1.14 -2.489,-1.758 -0.191,0.601 -0.484,1.351 -0.86,2.288 -0.4,0.997 -0.978,2.442 -1.038,3.024 0.528,-0.251 1.695,-1.276 2.499,-1.983 0.752,-0.661 1.373,-1.189 1.888,-1.571 z m 0.616,3.389 c 0.204,-0.814 0.477,-1.914 0.576,-2.634 -0.141,-0.085 -0.281,-0.173 -0.42,-0.259 -0.597,0.418 -1.452,1.169 -2.087,1.727 -1.022,0.898 -1.802,1.547 -2.405,1.911 1.2,0.813 2.438,1.571 3.714,2.268 0.054,-0.69 0.286,-1.67 0.622,-3.013 z m 10.454,1.59 c -0.163,-0.044 -0.321,-0.09 -0.482,-0.136 -0.46,0.565 -1.08,1.522 -1.542,2.231 -0.279,0.432 -0.52,0.796 -0.746,1.127 0.711,0.636 1.182,1.36 1.318,2.068 0.605,0.166 1.214,0.326 1.829,0.466 -0.135,-0.679 -0.178,-1.688 -0.22,-3.074 -0.026,-0.836 -0.06,-1.964 -0.157,-2.682 z m 1.284,5.852 c 0.382,-0.441 1.037,-1.841 1.491,-2.807 0.438,-0.937 0.786,-1.657 1.093,-2.193 -1.002,-0.167 -1.993,-0.371 -2.967,-0.613 0.064,0.622 0.093,1.42 0.124,2.417 0.032,1.077 0.079,2.637 0.259,3.196 z m 5.042,0.476 c -0.178,-0.641 -0.336,-1.505 -0.528,-2.642 -0.139,-0.821 -0.326,-1.93 -0.52,-2.626 -0.167,-0.022 -0.333,-0.041 -0.499,-0.064 -0.378,0.626 -0.862,1.654 -1.219,2.418 -0.607,1.292 -1.038,2.167 -1.414,2.71 1.288,0.241 2.595,0.419 3.918,0.548 0.076,-0.12 0.162,-0.234 0.262,-0.344 z m 10.934,-2.915 c -0.358,-0.764 -0.84,-1.792 -1.218,-2.417 -0.166,0.023 -0.333,0.042 -0.5,0.064 -0.195,0.696 -0.381,1.806 -0.52,2.627 -0.179,1.061 -0.328,1.891 -0.494,2.518 0.142,0.143 0.268,0.292 0.372,0.449 1.272,-0.127 2.533,-0.298 3.773,-0.53 -0.375,-0.545 -0.807,-1.418 -1.413,-2.711 z m 2.66,-3.174 c -0.974,0.242 -1.962,0.445 -2.963,0.612 0.302,0.537 0.651,1.257 1.089,2.194 0.453,0.966 1.11,2.367 1.491,2.807 0.179,-0.559 0.226,-2.119 0.259,-3.196 0.03,-0.997 0.059,-1.795 0.124,-2.417 z m 4.542,4.167 c -0.416,-0.494 -0.918,-1.232 -1.619,-2.312 -0.46,-0.708 -1.082,-1.665 -1.543,-2.23 -0.159,0.046 -0.319,0.092 -0.478,0.136 -0.099,0.718 -0.133,1.846 -0.158,2.682 -0.043,1.386 -0.085,2.394 -0.22,3.074 1.342,-0.307 2.659,-0.679 3.953,-1.103 0.013,-0.082 0.042,-0.165 0.065,-0.247 z m 6.66,-8.891 c -0.141,0.087 -0.281,0.175 -0.423,0.261 0.1,0.719 0.374,1.819 0.578,2.634 0.241,0.971 0.429,1.746 0.533,2.365 0.244,0.082 0.461,0.189 0.658,0.318 1.074,-0.608 2.125,-1.248 3.142,-1.938 -0.603,-0.364 -1.383,-1.015 -2.403,-1.913 -0.634,-0.557 -1.491,-1.308 -2.085,-1.727 z m 3.259,-2.253 c -0.806,0.618 -1.635,1.203 -2.489,1.758 0.515,0.382 1.135,0.909 1.887,1.571 0.805,0.707 1.974,1.734 2.5,1.983 -0.059,-0.581 -0.638,-2.026 -1.037,-3.024 -0.376,-0.938 -0.671,-1.688 -0.861,-2.288 z m 4.413,3.513 c -0.136,-0.631 -0.043,-1.38 0.264,-2.152 -0.379,-0.237 -0.79,-0.505 -1.261,-0.817 -0.736,-0.488 -1.659,-1.097 -2.296,-1.424 -0.126,0.104 -0.259,0.201 -0.386,0.303 0.195,0.7 0.617,1.759 0.932,2.543 0.511,1.277 0.874,2.213 1.024,2.888 0.586,-0.433 1.159,-0.88 1.723,-1.341 z M -9.685,28.53 c -0.911,-0.295 -1.911,-0.617 -2.599,-0.755 -0.092,0.133 -0.186,0.264 -0.28,0.396 0.376,0.621 1.069,1.531 1.584,2.204 0.83,1.085 1.429,1.886 1.753,2.495 0.885,-1.131 1.717,-2.305 2.493,-3.518 -0.756,-0.116 -1.825,-0.458 -2.951,-0.822 z m -0.491,-4.114 c -0.495,0.883 -1.019,1.748 -1.577,2.588 0.673,0.162 1.489,0.426 2.336,0.701 1.157,0.374 2.464,0.796 3.084,0.822 -0.291,-0.512 -1.387,-1.599 -2.144,-2.35 -0.716,-0.713 -1.286,-1.285 -1.699,-1.761 z M -38.236,3.662 c 0.058,0.236 0.103,0.476 0.134,0.721 H -9.539 C -9.633,0.47 -10.358,-3.289 -11.636,-6.788 Z m -4.355757,-5.0670097 9.671563,-26.5436793 c -3.094,-0.987 -7.231431,-1.902186 -10.630431,-1.985186 l -0.294004,28.1628704 z M -45.915,-37.193 c 0.042,0.133 0.08,0.252 0.124,0.393 0.25,0.803 0.589,1.887 0.88,2.559 h 0.516 l 0.997,-2.926 c -0.860742,0.156144 -1.711576,0.07718 -2.517,-0.026 z m -5.289,41.576 c 0.042,-0.327 0.106,-0.647 0.195,-0.957 L -77.198,-7.991 c -1.564,3.836 -2.465,8.007 -2.568,12.374 z m 0.146,2.451 C -51.116,6.6 -51.163,6.362 -51.196,6.118 h -28.569 c 0.098,3.912 0.828,7.669 2.109,11.165 z m 3.002,4.052 c -0.208,-0.125 -0.407,-0.26 -0.598,-0.406 l -20.19,20.188 c 2.743,2.611 5.903,4.783 9.373,6.403 z M -61.439,40.94 c -0.92,-0.434 -1.817,-0.905 -2.696,-1.406 -0.106,0.619 -0.296,1.402 -0.54,2.381 -0.26,1.042 -0.638,2.555 -0.617,3.139 0.487,-0.32 1.502,-1.493 2.202,-2.302 0.678,-0.784 1.212,-1.379 1.651,-1.812 z m 15.918,-29.167 c -0.323,-0.042 -0.637,-0.107 -0.945,-0.194 l -11.416,26.188 c 3.833,1.564 7.999,2.465 12.361,2.571 z m 1.126,32.919 c -0.085,0 -0.171,0.007 -0.257,0.007 -0.086,0 -0.173,-0.007 -0.259,-0.007 -0.291,0.671 -0.63,1.755 -0.88,2.56 -0.115,0.367 -0.221,0.699 -0.321,1.009 0.483,-0.102 0.998,-0.16 1.536,-0.16 0.477,0 0.937,0.045 1.371,0.126 -0.097,-0.301 -0.199,-0.623 -0.309,-0.975 -0.251,-0.805 -0.59,-1.889 -0.881,-2.56 z m 1.32,-33.053 c -0.233,0.058 -0.468,0.103 -0.71,0.134 v 28.565 c 3.91,-0.095 7.664,-0.821 11.159,-2.099 z m 13.265,32.659 c -0.107,-0.997 -0.188,-1.797 -0.209,-2.424 -0.934,0.375 -1.88,0.723 -2.847,1.026 0.368,0.486 0.808,1.144 1.375,2.016 0.377,0.583 0.864,1.332 1.28,1.892 0.158,-0.258 0.342,-0.514 0.57,-0.759 -0.043,-0.585 -0.111,-1.226 -0.169,-1.751 z m 3.604,-0.218 c -0.204,-0.232 -0.425,-0.484 -0.665,-0.762 -0.554,-0.639 -1.3,-1.502 -1.834,-1.998 -0.151,0.068 -0.3,0.14 -0.454,0.205 0.002,0.726 0.122,1.848 0.212,2.68 0.045,0.412 0.082,0.781 0.115,1.128 0.429,-0.324 0.912,-0.619 1.454,-0.858 0.393,-0.174 0.783,-0.296 1.172,-0.395 z m -1.66,-3.14 c 0.439,0.433 0.972,1.027 1.651,1.811 0.303,0.35 0.662,0.765 1.014,1.151 0.36,-0.034 0.707,-0.038 1.035,-0.008 -0.129,-0.641 -0.313,-1.385 -0.463,-1.98 -0.243,-0.979 -0.433,-1.762 -0.54,-2.381 -0.879,0.502 -1.776,0.973 -2.697,1.407 z M -40.65,10.48 c -0.257,0.195 -0.524,0.376 -0.807,0.533 l 10.445,26.591 c 3.935,-1.664 7.499,-4.032 10.551,-6.936 z m 28.526,8.005 c 1.568,-3.833 2.474,-8.002 2.583,-12.367 h -28.567 c -0.045,0.325 -0.11,0.644 -0.201,0.952 z M -39.01,8.657 c -0.126,0.207 -0.262,0.408 -0.411,0.599 l 20.187,20.187 c 2.613,-2.742 4.79,-5.9 6.414,-9.369 z m 23.534,26.493 c -0.498,-0.877 -0.891,-1.581 -1.162,-2.15 -0.714,0.721 -1.462,1.409 -2.23,2.074 0.558,0.307 1.24,0.746 2.081,1.302 0.36,0.239 0.766,0.507 1.162,0.758 0.194,-0.337 0.437,-0.668 0.707,-0.99 -0.191,-0.349 -0.387,-0.694 -0.558,-0.994 z m 5.609,-1.631 c -0.223,-0.551 -1.157,-1.773 -1.802,-2.617 -0.614,-0.802 -1.099,-1.446 -1.443,-1.973 -0.611,0.811 -1.257,1.592 -1.927,2.352 0.587,0.228 1.319,0.57 2.233,1.011 1.037,0.5 2.305,1.109 2.939,1.227 z m -3.315,-0.446 c -0.828,-0.399 -1.797,-0.864 -2.479,-1.097 -0.108,0.118 -0.22,0.232 -0.33,0.347 0.288,0.668 0.851,1.662 1.269,2.398 0.154,0.27 0.294,0.519 0.428,0.758 0.888,-0.835 1.884,-1.395 2.811,-1.615 -0.484,-0.211 -1.043,-0.475 -1.699,-0.791 z m -27.714,13.765 c 0.164,-0.977 0.301,-1.762 0.454,-2.367 -0.997,0.106 -2.007,0.167 -3.024,0.196 0.232,0.589 0.479,1.36 0.779,2.327 0.143,0.453 0.313,0.996 0.486,1.503 0.333,0.12 0.64,0.263 0.916,0.427 0.146,-0.656 0.281,-1.455 0.389,-2.086 z m -7.107,2.17 c 0.263,-0.169 0.557,-0.318 0.876,-0.444 0.181,-0.526 0.359,-1.097 0.508,-1.57 0.301,-0.966 0.548,-1.738 0.78,-2.327 -1.015,-0.029 -2.023,-0.09 -3.019,-0.196 0.147,0.605 0.284,1.39 0.45,2.366 0.11,0.658 0.252,1.499 0.405,2.171 z m -9.81,-4.092 c 0.565,-0.871 1.004,-1.53 1.374,-2.016 -0.967,-0.303 -1.914,-0.651 -2.847,-1.025 -0.021,0.627 -0.101,1.426 -0.208,2.424 -0.035,0.332 -0.076,0.709 -0.113,1.09 0.392,0.176 0.758,0.375 1.09,0.598 0.247,-0.368 0.493,-0.746 0.704,-1.071 z m -2.544,-0.71 c 0.09,-0.832 0.21,-1.955 0.211,-2.68 -0.153,-0.065 -0.301,-0.137 -0.453,-0.206 -0.534,0.497 -1.281,1.36 -1.834,2 -0.598,0.692 -1.078,1.223 -1.485,1.637 0.949,-0.311 2.191,-0.287 3.471,0.114 0.027,-0.272 0.056,-0.556 0.09,-0.865 z m 10.471,-34.95 c -0.197,-0.255 -0.378,-0.524 -0.536,-0.807 l -26.596,10.447 c 1.668,3.935 4.039,7.497 6.946,10.547 z m -26.306,19.674 -3.248,4.596 c 0.598,-0.104 1.887,-0.725 2.942,-1.233 0.913,-0.439 1.645,-0.782 2.234,-1.009 -0.67,-0.761 -1.317,-1.543 -1.928,-2.354 z m 1.609,5.794 c 0.419,-0.737 0.982,-1.731 1.27,-2.398 -0.111,-0.118 -0.224,-0.233 -0.334,-0.352 -0.669,0.232 -1.644,0.7 -2.475,1.101 -0.636,0.305 -1.18,0.565 -1.652,0.772 0.92,0.194 1.919,0.728 2.815,1.544 0.119,-0.214 0.241,-0.43 0.376,-0.667 z m 2.065,1.654 c 0.842,-0.556 1.525,-0.996 2.081,-1.302 -0.768,-0.665 -1.515,-1.353 -2.23,-2.074 -0.27,0.569 -0.662,1.272 -1.162,2.15 -0.152,0.27 -0.325,0.576 -0.498,0.887 0.289,0.333 0.551,0.676 0.759,1.026 0.36,-0.23 0.724,-0.47 1.05,-0.687 z M -50.32,1.834 c 0.127,-0.211 0.264,-0.415 0.414,-0.61 l -20.19,-20.189 c -2.612,2.745 -4.787,5.91 -6.408,9.384 z m -22.349,-24.382 c 0.716,-0.723 1.464,-1.41 2.232,-2.076 l -2.909,-1.845 c -0.206,0.419 -0.462,0.836 -0.786,1.239 z m -3.453,-0.073 c 0.827,0.398 1.795,0.864 2.477,1.096 0.108,-0.117 0.221,-0.23 0.331,-0.348 l -1.429,-2.677 c -0.71,0.697 -1.499,1.205 -2.269,1.505 0.276,0.128 0.572,0.271 0.89,0.424 z m -3.217,-0.241 c 0.326,0.61 1.128,1.659 1.703,2.412 0.613,0.801 1.098,1.446 1.444,1.973 0.609,-0.812 1.255,-1.593 1.926,-2.354 -0.588,-0.226 -1.319,-0.569 -2.233,-1.008 -0.624,-0.302 -1.331,-0.641 -1.935,-0.89 -0.327,0.011 -0.626,-0.043 -0.905,-0.133 z m 18.680188,-8.072812 0.595302,-0.251001 -0.302615,-3.167125 c -0.375317,0.369277 -1.876147,1.125792 -2.288875,1.232938 z M -65.017,-32.866 c 0.297424,1.266208 0.637015,2.550762 0.88,3.785 0.878,-0.502 1.777,-0.972 2.696,-1.407 l -2.175,-2.416 c -0.493,0.074 -0.961,0.082 -1.401,0.038 z m 6.228466,-2.887573 c -0.180709,0.29406 -0.469141,0.58812 -0.790719,0.88218 l 0.305908,3.370174 c 0.76248,-0.311165 1.887563,-0.661475 2.834345,-0.947781 -0.305,-0.399 -1.921534,-2.648573 -2.349534,-3.304573 z M -68.869,-20.193 -48.833187,0.0781877 -48.203625,-0.650625 c -3.375,-8.727 -7.40925,-17.54675 -10.78725,-26.27475 -3.539,1.635 -7.090125,4.073375 -9.878125,6.732375 z m 20.006,-13.826 c 0.997,-0.106 2.007,-0.168 3.024,-0.198 -0.232,-0.588 -0.479,-1.359 -0.781,-2.325 -0.087,-0.279 -0.185,-0.591 -0.286,-0.909 -0.454,-0.159 -0.859,-0.362 -1.204,-0.6 -0.259718,1.353548 -0.46305,2.730178 -0.753,4.032 z m 7.686,-3.94 c -0.36,0.228 -0.778,0.417 -1.24,0.564 l -1.05,3.178 c 1.016,0.03 2.025,0.091 3.02,0.197 z m 8.311,5.51 c 0.142,0.046 2.820361,0.938948 2.962361,0.984948 l -0.301348,-3.409077 c -0.268862,-0.14823 -0.438138,-0.227086 -0.776524,-0.381071 -0.432,0.659 -1.580489,2.4042 -1.884489,2.8052 z m 4.999,1.96 c 0.919,0.434 1.817,0.905 2.696,1.407 l 1.158,-5.522 z M -28.547431,-30.882998 -26.102,-33.747 c -0.367,0.041 -2.50096,-0.369746 -3.291732,-0.793513 l 0.324043,3.396975 z M -39.398,1.224 c 0.197,0.259 0.379,0.53 0.54,0.819 l 26.587,-10.445 c -1.663,-3.94 -4.033,-7.509 -6.939,-10.563 z m 26.59,-23.065 c -0.912,0.439 -1.645,0.781 -2.233,1.008 0.67,0.761 1.317,1.543 1.928,2.354 0.344,-0.526 0.829,-1.171 1.441,-1.973 0.556,-0.726 1.321,-1.728 1.668,-2.345 -0.265,0.059 -0.549,0.076 -0.85,0.055 -0.602,0.25 -1.32,0.595 -1.954,0.901 z m -3.185,-0.034 c 0.111,0.119 0.225,0.234 0.335,0.353 l 3.428,-1.554 c -0.899204,-0.446856 -1.686074,-0.982905 -2.28,-1.574 z m -2.876,-2.75 c 0.767,0.666 1.515,1.354 2.229,2.075 0.27,-0.57 0.664,-1.273 1.163,-2.152 0.113,-0.196 0.237,-0.416 0.363,-0.64 -0.302,-0.392 -0.536,-0.799 -0.73,-1.203 z m 13.535,48.432 c -0.473,-0.072 -0.977,-0.16 -1.502,-0.254 -0.985,-0.175 -1.982,-0.347 -2.676,-0.386 -0.073,0.144 -0.145,0.287 -0.22,0.43 0.459,0.565 1.267,1.369 1.867,1.965 0.972,0.964 1.676,1.677 2.079,2.235 0.39,-0.669 0.76,-1.351 1.116,-2.042 -0.38,-0.485 -0.605,-1.163 -0.664,-1.948 z m -1.219,-6.49 c 0.576,0 1.234,0.026 1.894,0.051 0.646,0.025 1.295,0.05 1.864,0.05 0.761,0 1.144,-0.048 1.335,-0.092 -0.418,-0.413 -1.767,-1.16 -2.696,-1.678 -0.883,-0.49 -1.587,-0.888 -2.115,-1.234 -0.237,0.985 -0.505,1.957 -0.815,2.913 0.168,-0.006 0.343,-0.01 0.533,-0.01 z M -7.086,-6.876 c 0.308,0.956 0.578,1.928 0.815,2.913 l 4.811,-2.912 z m 1.651,-3.041 c -0.671,0.505 -1.577,1.188 -2.111,1.685 0.057,0.155 0.106,0.314 0.16,0.47 l 5.776,-0.014 c -0.062,-0.203 -0.136,-0.401 -0.199,-0.602 -1.027,-0.016 -2.163,-0.76 -3.04,-1.982 -0.187,0.142 -0.376,0.285 -0.586,0.443 z m -0.52,-0.694 c 0.199,-0.149 0.419,-0.314 0.643,-0.486 -0.106,-0.191 -0.212,-0.379 -0.304,-0.585 -0.104,-0.236 -0.184,-0.473 -0.262,-0.709 -0.266,0.047 -0.535,0.094 -0.805,0.142 -0.877,0.156 -1.713,0.303 -2.398,0.373 0.436,0.905 0.831,1.836 1.199,2.779 0.475,-0.416 1.117,-0.906 1.927,-1.514 z m 1.262,28.845 c -0.647,-0.024 -1.294,-0.049 -1.86,-0.049 -0.36,0 -0.624,0.012 -0.833,0.027 -0.054,0.157 -0.103,0.316 -0.16,0.471 0.534,0.497 1.44,1.18 2.113,1.686 0.215,0.162 0.411,0.309 0.602,0.455 0.429,-1.07 1.06,-1.942 1.759,-2.543 -0.512,-0.007 -1.062,-0.025 -1.621,-0.047 z m -0.426,3.462 c -0.29,-0.223 -0.58,-0.442 -0.834,-0.634 -0.812,-0.608 -1.453,-1.099 -1.929,-1.515 -0.367,0.943 -0.762,1.874 -1.199,2.78 0.685,0.069 1.521,0.216 2.398,0.373 0.458,0.081 0.916,0.16 1.354,0.23 0.031,-0.401 0.099,-0.812 0.21,-1.234 z m 1.815,-9.021 c -0.827,0.083 -1.943,0.194 -2.651,0.339 -0.034,0.166 -0.071,0.33 -0.107,0.494 0.596,0.421 1.589,0.972 2.327,1.382 1.209,0.671 2.082,1.169 2.62,1.6 0.359,-1.392 0.653,-2.81 0.879,-4.25 -0.669,0.184 -1.677,0.296 -3.068,0.435 z m -2.07,-3.567 c -0.099,1.011 -0.244,2.007 -0.418,2.993 0.616,-0.106 1.41,-0.191 2.402,-0.289 1.073,-0.106 2.629,-0.261 3.174,-0.479 -0.465,-0.35 -1.906,-0.909 -2.899,-1.294 -0.94,-0.364 -1.69,-0.661 -2.259,-0.931 z M -1.88,6.783 C -2.9908447,7.0781809 -4.1753456,7.2965514 -5.265,7.674 -5.274,7.842 -5.289,8.008 -5.302,8.175 -4.653,8.511 -3.59,8.924 -2.803,9.23 -1.52,9.728 -0.59,10.1 0,10.45 0.017,10.313 0.023,10.172 0.038,10.035 -0.893,9.537 -1.617,8.316 -1.88,6.783 Z M -1.977,5.914 C -1.983,5.782 -1.989,5.65 -1.989,5.515 c 0,-0.33 0.02,-0.653 0.06,-0.965 -1.0972602,-0.2687788 -2.2436292,-0.538726 -3.29,-0.843 0.02,0.505 0.038,1.01 0.038,1.52 0,0.508 -0.018,1.013 -0.038,1.517 1.200776,-0.3501038 2.143291,-0.5624825 3.242,-0.83 z m 2.866,4.358 c -0.042,0.375 -0.083,0.75 -0.134,1.122 -0.001,0.023 0.009,0.046 0.006,0.07 -0.005,0.022 -0.017,0.039 -0.024,0.061 -0.28,2.038 -0.697,4.033 -1.239,5.977 v 0.003 c 0.038,0.013 0.078,0.011 0.115,0.025 1.525,0.591 1.988,3.058 1.038,5.511 -0.952,2.454 -2.957,3.963 -4.48,3.373 -0.055,-0.021 -0.097,-0.062 -0.148,-0.087 -0.466,0.899 -0.96,1.78 -1.483,2.642 -0.013,0.025 -0.013,0.052 -0.027,0.077 -0.013,0.019 -0.036,0.025 -0.049,0.043 -1.058,1.726 -2.23,3.372 -3.498,4.939 -0.021,0.042 -0.032,0.087 -0.064,0.125 -0.019,0.024 -0.05,0.049 -0.08,0.073 0.057,0.044 0.124,0.074 0.177,0.126 1.155,1.155 0.582,3.6 -1.277,5.461 -1.862,1.859 -4.305,2.431 -5.46,1.275 -0.066,-0.064 -0.105,-0.146 -0.158,-0.217 -0.722,0.582 -1.458,1.147 -2.214,1.687 -0.034,0.038 -0.061,0.082 -0.105,0.113 -0.04,0.027 -0.086,0.035 -0.128,0.052 -1.173,0.824 -2.395,1.574 -3.643,2.288 0.052,0.083 0.12,0.156 0.16,0.246 0.659,1.495 -0.756,3.569 -3.163,4.63 -2.407,1.063 -4.893,0.713 -5.553,-0.782 -0.036,-0.083 -0.042,-0.173 -0.067,-0.258 -1.531,0.495 -3.094,0.918 -4.691,1.251 -0.011,0.002 -0.018,0.01 -0.029,0.012 l -0.047,0.005 c -1.46,0.302 -2.949,0.526 -4.457,0.68 0.012,0.088 0.02,0.176 0.02,0.265 0,1.634 -2.131,2.959 -4.763,2.959 -2.631,0 -4.763,-1.325 -4.763,-2.959 0,-0.084 0.008,-0.166 0.021,-0.249 -1.563,-0.155 -3.103,-0.385 -4.614,-0.696 l -0.046,-0.005 c -0.01,-0.002 -0.016,-0.01 -0.028,-0.012 -0.856,-0.178 -1.7,-0.387 -2.539,-0.614 -0.018,0.073 -0.018,0.15 -0.046,0.221 -0.59,1.524 -3.058,1.987 -5.51,1.036 -2.454,-0.95 -3.963,-2.955 -3.374,-4.479 0.026,-0.066 0.074,-0.118 0.106,-0.18 -0.078,-0.04 -0.162,-0.074 -0.24,-0.115 -0.045,-0.011 -0.092,-0.016 -0.136,-0.038 -0.038,-0.021 -0.065,-0.055 -0.098,-0.081 -1.778,-0.932 -3.486,-1.976 -5.119,-3.125 -0.042,-0.017 -0.088,-0.024 -0.126,-0.05 -0.044,-0.032 -0.071,-0.076 -0.104,-0.114 -0.723,-0.516 -1.426,-1.058 -2.119,-1.613 -0.037,0.046 -0.06,0.101 -0.102,0.143 -4.006904,2.256404 -8.697976,-4.371638 -6.65,-6.799 -1.435059,-2.050365 -3.06875,-4.065845 -4.198,-6.061 -0.021,0.01 -0.036,0.027 -0.057,0.037 -1.495,0.66 -3.569,-0.757 -4.63,-3.164 -1.063,-2.406 -0.713,-4.893 0.782,-5.553 0.002,-0.001 0.005,-0.001 0.008,-0.002 -1.029907,-3.20482 -1.686867,-6.189972 -2.035,-9.274 -1.601,-0.064 -2.887,-2.168 -2.887,-4.758 0,-2.556 1.252,-4.636 2.821,-4.753 0.213605,-2.4260811 0.764846,-5.1931043 1.336,-7.355 -1.389,-0.702 -1.794,-3.058 -0.879,-5.417 0.906,-2.34 2.768,-3.8 4.26,-3.42 1.376742,-2.840138 3.352075,-5.760346 5.238,-8.105 -0.916,-1.219 -0.327,-3.488 1.431,-5.248 1.75,-1.747 4,-2.338 5.226,-1.445 0.795,-0.65 1.612,-1.277 2.45,-1.877 0.036,-0.039 0.063,-0.085 0.107,-0.116 0.055,-0.038 0.115,-0.067 0.179,-0.087 1.13,-0.792 2.309,-1.516 3.51,-2.207 -0.384,-1.464 0.498394,-3.148611 2.938689,-4.242563 1.998271,-0.777838 4.330824,-1.051791 5.672311,0.405563 3.128509,-1.042844 6.286086,-1.686503 9.482,-2.009 0.266,-1.478 2.307233,-2.628 4.732499,-2.628 2.459,0 4.482501,1.158 4.735501,2.645 2.652403,0.268026 4.959635,0.723164 7.431,1.413 2.867186,-3.036964 9.143469,0.879008 8.787,3.439 2.928068,1.633802 5.860477,3.555809 8.033,5.325 1.204,-0.984 3.523,-0.403 5.311,1.383 1.808,1.81 2.384,4.162 1.354,5.353 1.7198353,2.178125 2.9559419,3.956289 4.171,6.175 1.488,-0.578 3.505,0.819 4.55,3.184 1.058,2.394 0.714,4.866 -0.763,5.54 1.02582372,2.9596747 1.62286911,6.5887472 1.918,9.284 0.006,0 0.011,-0.001 0.017,-0.001 1.634,0 2.96,2.134 2.96,4.764 -0.3181971,2.06087 -1.2469552,4.683699 -3.04,4.757 z m -31.99768,-37.481621 -10.041262,26.70932 0.434321,0.45433983 L -20.436,-20.193 c -2.728919,-3.034932 -6.58479,-5.506388 -10.67268,-7.016621 z M -83.933,1.344 c 0.1,-1.01 0.245,-2.007 0.419,-2.994 l -5.576,0.769 z m 0.583,-3.907 c 0.035,-0.166 0.072,-0.329 0.107,-0.494 -0.597,-0.42 -1.592,-0.972 -2.327,-1.381 -1.21,-0.671 -2.082,-1.17 -2.62,-1.6 -0.361,1.391 -0.653,2.81 -0.879,4.25 z M -84.004,8.175 C -84.016,8.007 -84.03,7.842 -84.042,7.674 l -3.235,-0.856 c -0.283,1.596 -1.066,2.848 -2.062,3.287 0.013,0.114 0.02,0.231 0.033,0.347 z m 0.49,3.927 c -0.174,-0.987 -0.319,-1.983 -0.419,-2.994 -1.745924,0.8119427 -3.40865,1.268914 -5.157,2.227 z m 3.941,11.495 c -0.075,-0.142 -0.148,-0.286 -0.22,-0.429 l -3.395,0.513 c 0.461,1.606 0.294,3.116 -0.402,3.988 0.025,0.042 0.047,0.086 0.071,0.129 z m 34.052,-53.484 c -3.398,0.083 -8.64775,0.972125 -11.74475,1.956125 l 10.353334,26.6069128 1.258833,-0.3462126 z m -8.643,-3.195 c 0.975,-0.241 1.964,-0.445 2.964,-0.612 l -2.58,-5.001 z m -11.199,4.723 c 0.14,-0.086 0.28,-0.175 0.422,-0.26 -0.269604,-1.528465 -0.678707,-2.998767 -1.005,-4.439 -0.441,-0.154 -0.807,-0.389 -1.074,-0.697 -0.957,0.55 -1.9,1.126 -2.813,1.744 z m -3.261,2.253 c 0.807,-0.616 1.638,-1.203 2.492,-1.759 l -4.389,-3.552 z"
       style="fill:#000000;fill-opacity:1;fill-rule:nonzero;stroke:none"
       id="path1228"
       transform="matrix(0.35456332,0,0,-0.35456698,33.002754,19.153354)"
       clip-path="url(#clipPath15365)"
       sodipodi:nodetypes="ccccccccccccccccccccccccccccccccscccccccccccccccccccccccccccccccccccccccccccccccccccccccccccccccccccccccccccccccccccccccccccccccccccccccccccccccccccccccccccccccccsccccsccccccccccccccccccccccccccccccccccccccccccccccccccccccccccccccccccccccccccccccccccccccccccccccccccccccccccccccccccccccccccccccccccccccccccccscccccccscccccccccccccccccccccccccccccscccsccccccccccccccccccccccccccccccccccccccccccccccccccccccccccccccccccccccccccccccccccccccccccccccccccccccccccccccccccccccccccccccccccccccccccccccccccccccccccccccccccccccccccccccccccccccccccccccccccccccccccccccccccccccscccccsscccccscccscccccccccccccccccccccccccccccccccccscccccccccccccscccscccccccccccccccccccccccccccccccccccccccccccccccccccccccccccccccccccccccccccccccccccscccssccsscccsccs"
       inkscape:transform-center-x="-0.93072863"
       inkscape:transform-center-y="-3.3739258" />
  </g>
</svg>
